<svg width="46" height="35" viewBox="0 0 46 35" fill="none" xmlns="http://www.w3.org/2000/svg">
<path d="M0 17.5C0 7.83502 7.83502 0 17.5 0H46V35H17.5C7.83502 35 0 27.165 0 17.5Z" fill="#FF0000"/>
<path d="M13.2718 22.4268C16.1834 28.9895 23.864 31.9495 30.4268 29.038C36.9895 26.1265 39.9495 18.4458 37.038 11.8831C34.1264 5.32033 26.4458 2.36034 19.883 5.27186C18.8355 5.73658 17.8798 6.32267 17.025 7.00638C17.1749 6.93057 17.328 6.85798 17.4838 6.78888C22.42 4.59897 28.1967 6.82546 30.3866 11.7616C32.5765 16.6978 30.3503 22.4744 25.4141 24.6643C20.4779 26.8542 14.7011 24.6282 12.5111 19.692C12.442 19.5362 12.3772 19.3797 12.317 19.2229C12.4919 20.3034 12.8071 21.3793 13.2718 22.4268Z" fill="white"/>
</svg>
