<svg width="35" height="35" viewBox="0 0 35 35" fill="none" xmlns="http://www.w3.org/2000/svg">
<circle cx="17.5" cy="17.5" r="17.5" fill="#FF6200"/>
<g clip-path="url(#clip0_6057_604)">
<path d="M5.61395 21.5238C5.29404 20.5819 5.08568 19.5933 5.00051 18.5742L7.03449 17.5892C7.03196 17.2597 7.04413 16.9276 7.07353 16.5935C7.08164 16.4779 7.09736 16.3648 7.11054 16.2503L5.19721 15.0411C5.39595 14.0368 5.7123 13.0771 6.13309 12.1803L8.39319 12.3445C8.61372 11.9531 8.86011 11.577 9.1278 11.2206L8.07582 9.22003C8.74047 8.46413 9.49485 7.78985 10.3197 7.2119L12.1935 8.48238C12.5773 8.25627 12.9763 8.05297 13.3899 7.87502L13.4787 5.61695C14.4201 5.29705 15.4097 5.08818 16.4272 5.00098L17.4128 7.03699C17.7423 7.03395 18.0724 7.04713 18.408 7.07552C18.5241 7.08566 18.6382 7.10036 18.7517 7.11405L19.9588 5.19718C20.9647 5.39794 21.9239 5.71429 22.8217 6.13457L22.657 8.39467C23.0478 8.61572 23.4245 8.86109 23.7799 9.12979L25.782 8.07731C26.5389 8.74297 27.2132 9.49684 27.7891 10.3227L26.5176 12.1955C26.7452 12.5798 26.95 12.9782 27.1265 13.3909L29.3855 13.4796C29.706 14.4216 29.9133 15.4092 30 16.4292L27.965 17.4143C27.967 17.7443 27.9564 18.0759 27.9275 18.41C27.9173 18.5256 27.9026 18.6381 27.8874 18.7532L29.8033 19.9618C29.602 20.9662 29.2867 21.9259 28.8664 22.8227L26.6073 22.659C26.3858 23.0503 26.1404 23.425 25.8727 23.7824L26.9252 25.7824C26.2605 26.5409 25.5046 27.2146 24.6803 27.7911L22.8075 26.5206C22.4227 26.7492 22.0232 26.953 21.6111 27.1295L21.5218 29.388C20.5804 29.7069 19.5933 29.9163 18.5748 30.0025L17.5867 27.9675C17.2582 27.9695 16.9256 27.9584 16.5915 27.9295C16.4769 27.9203 16.3629 27.9041 16.2503 27.8899L15.0422 29.8068C14.0353 29.6055 13.0771 29.2902 12.1788 28.8704L12.342 26.6098C11.9527 26.3873 11.577 26.1424 11.2191 25.8747L9.21804 26.9267C8.46214 26.261 7.78837 25.5077 7.21143 24.6818L8.48039 22.8085C8.25478 22.4237 8.05149 22.0242 7.87252 21.6115L5.61445 21.5233L5.61395 21.5238ZM17.4995 24.878C21.5675 24.878 24.876 21.569 24.876 17.5015C24.876 13.434 21.5675 10.1255 17.4995 10.1255C13.4315 10.1255 10.1235 13.4345 10.1235 17.502C10.1235 21.5695 13.4325 24.8785 17.4995 24.8785V24.878Z" fill="black"/>
</g>
<defs>
<clipPath id="clip0_6057_604">
<rect width="25" height="25.002" fill="white" transform="matrix(-1 0 0 1 30 5)"/>
</clipPath>
</defs>
</svg>
