<svg width="35" height="35" viewBox="0 0 35 35" fill="none" xmlns="http://www.w3.org/2000/svg">
<circle cx="17.5" cy="17.5" r="17.5" fill="#FF6200"/>
<g clip-path="url(#clip0_6057_609)">
<path d="M12.9926 24.9014L11.5381 26.902C8.07025 24.9476 6 21.6202 6 18.0002C6 15.1787 7.24835 12.5262 9.51501 10.531C11.7817 8.53582 14.7947 7.43764 18.0004 7.43764V6L21.438 8.62492L18.0004 11.2498V9.81254C12.871 9.81254 8.69839 13.4851 8.69839 18.0002C8.69839 20.8063 10.3037 23.3867 12.9926 24.9014Z" fill="black"/>
<path d="M30 18.0003C30 20.8217 28.7516 23.4742 26.4849 25.4694C24.2183 27.4646 21.2052 28.5628 18 28.5628V30.0001L14.5624 27.3752L18 24.7503V26.1876C23.1286 26.1876 27.3016 22.515 27.3016 17.9999C27.3016 15.1938 25.6963 12.6134 23.0073 11.0987L24.4623 9.09814C27.9293 11.0525 30 14.3799 30 17.9999V18.0003Z" fill="black"/>
</g>
<defs>
<clipPath id="clip0_6057_609">
<rect width="24" height="24" fill="white" transform="translate(6 6)"/>
</clipPath>
</defs>
</svg>
